<svg width="8" height="9" viewBox="0 0 8 9" fill="none" xmlns="http://www.w3.org/2000/svg">
<path fill-rule="evenodd" clip-rule="evenodd" d="M0.21075 0.446825C0.491739 0.165837 0.947311 0.165837 1.2283 0.446825L4.00001 3.21853L6.7717 0.446838C7.05269 0.16585 7.50826 0.16585 7.78925 0.446838C8.07024 0.727827 8.07024 1.1834 7.78925 1.46439L5.01756 4.23608L7.78926 7.00778C8.07025 7.28877 8.07025 7.74434 7.78926 8.02533C7.50827 8.30632 7.0527 8.30632 6.77171 8.02533L4.00001 5.25363L1.22829 8.02534C0.947301 8.30633 0.491729 8.30633 0.210741 8.02534C-0.0702471 7.74435 -0.0702471 7.28878 0.210741 7.00779L2.98246 4.23608L0.21075 1.46437C-0.0702378 1.18338 -0.0702378 0.727813 0.21075 0.446825Z" fill="#343434"/>
</svg>
